<svg width="24" height="25" viewBox="0 0 24 25" fill="none" xmlns="http://www.w3.org/2000/svg">
<g clip-path="url(#clip0)">
<path d="M14.8282 9.67166C14.6332 9.47666 14.3161 9.47666 14.1211 9.67166C13.9261 9.86666 13.9261 10.1847 14.1211 10.3787C14.6872 10.9447 15.0001 11.6977 15.0001 12.4997C15.0001 14.1537 13.6541 15.4997 12.0001 15.4997C11.1982 15.4997 10.4452 15.1877 9.87915 14.6207C9.68415 14.4257 9.36713 14.4257 9.17213 14.6207C8.97713 14.8147 8.97713 15.1327 9.17213 15.3277C9.92611 16.0837 10.9311 16.4997 12.0001 16.4997C14.2061 16.4997 16.0001 14.7057 16.0001 12.4997C16.0001 11.4306 15.5842 10.4256 14.8282 9.67166Z" fill="#3C3A36"/>
<path d="M12.697 8.56863C12.47 8.52864 12.238 8.49963 12 8.49963C9.794 8.49963 8 10.2936 8 12.4996C8 12.7376 8.02902 12.9696 8.06998 13.1966C8.11297 13.4386 8.324 13.6096 8.561 13.6096C8.59002 13.6096 8.61899 13.6076 8.64899 13.6016C8.91997 13.5536 9.10199 13.2936 9.05399 13.0226C9.023 12.8526 8.99999 12.6796 8.99999 12.4996C8.99999 10.8456 10.346 9.49961 12 9.49961C12.18 9.49961 12.353 9.52262 12.523 9.55262C12.789 9.60662 13.054 9.41861 13.102 9.14763C13.15 8.87664 12.968 8.61663 12.697 8.56863Z" fill="#3C3A36"/>
<path d="M23.8811 12.1766C23.7681 12.0426 21.0631 8.88564 17.3321 6.95266C17.0901 6.82567 16.7851 6.92167 16.6581 7.16767C16.5311 7.41269 16.6271 7.71466 16.8731 7.84169C19.7471 9.32968 22.0431 11.6517 22.8281 12.4997C21.6361 13.7907 16.9451 18.4997 12.0001 18.4997C10.3222 18.4997 8.63114 18.0947 6.97214 17.2947C6.72614 17.1737 6.42516 17.2787 6.30516 17.5277C6.18418 17.7757 6.28918 18.0747 6.53818 18.1947C8.33316 19.0617 10.1712 19.4997 12.0002 19.4997C18.1612 19.4997 23.6512 13.0957 23.8822 12.8227C24.0401 12.6366 24.0391 12.3636 23.8811 12.1766Z" fill="#3C3A36"/>
<path d="M15.2811 6.07563C14.1431 5.69262 13.0391 5.49963 12 5.49963C5.83904 5.49963 0.349052 11.9036 0.118052 12.1766C-0.0279632 12.3486 -0.0399632 12.5987 0.0900678 12.7856C0.159068 12.8846 1.81206 15.2316 4.67706 17.1346C4.76204 17.1916 4.85706 17.2186 4.95306 17.2186C5.11407 17.2186 5.27307 17.1406 5.36907 16.9936C5.52207 16.7647 5.45907 16.4536 5.22906 16.3016C3.12508 14.9026 1.68508 13.2136 1.14607 12.5267C2.29708 11.2766 7.01907 6.49966 12 6.49966C12.931 6.49966 13.9281 6.67568 14.962 7.02265C15.224 7.11663 15.508 6.97165 15.595 6.70863C15.6831 6.44665 15.543 6.16366 15.2811 6.07563Z" fill="#3C3A36"/>
</g>
<defs>
<clipPath id="clip0">
<rect width="24" height="24" fill="white" transform="translate(0 0.5)"/>
</clipPath>
</defs>
</svg>
